# xmcd CD database file generated by Grip 2.94
# 
# Track frame offsets:
#       182
#       11840
#       21927
#       30602
#       39717
#       59980
#       70182
#       80480
#       95080
#       103802
#       119955
# 
# Disc length: 1762 seconds
# 
# Revision: 3
# Processed by: cddbd v1.4b41PL1 Copyright (c) Steve Scherf et al.
# Submitted via: Grip 2.94
# 
DISCID=a506e00b
DTITLE=Loretta Lynn - Greatest Hits Live
DYEAR=1900
DGENRE=
TTITLE0=Hey Loretta
TTITLE1=You're Lookin' At Country
TTITLE2=We've Come A Long Way, Baby
TTITLE3=Fist City
TTITLE4=Patsy Cline Medley
TTITLE5=Somebody Somewhere (Don't Know What He's Missin' Tonight)
TTITLE6=Out Of My Head And Back In Bed
TTITLE7=Coal Miner's Daughter
TTITLE8=They Don't Make 'Em Like My Daddy
TTITLE9=One's On The Way, The Pill
TTITLE10=Don't Come Home A Drinkin' (With Lovin' On Your Mind)
EXTD=
EXTT0=
EXTT1=
EXTT2=
EXTT3=
EXTT4=
EXTT5=
EXTT6=
EXTT7=
EXTT8=
EXTT9=
EXTT10=
PLAYORDER=
